<svg xmlns="http://www.w3.org/2000/svg" xmlns:xlink="http://www.w3.org/1999/xlink" width="200" zoomAndPan="magnify" viewBox="0 0 150 149.999998" height="200" preserveAspectRatio="xMidYMid meet" version="1.0"><defs><g/><clipPath id="c8296457f2"><path d="M 7.75 7.121094 L 104 7.121094 L 104 78.371094 L 7.75 78.371094 Z M 7.75 7.121094 " clip-rule="nonzero"/></clipPath><clipPath id="01f1489831"><path d="M 80 7.121094 L 145 7.121094 L 145 78.371094 L 80 78.371094 Z M 80 7.121094 " clip-rule="nonzero"/></clipPath><clipPath id="d2edc3b9bc"><rect x="0" width="102" y="0" height="58"/></clipPath><clipPath id="78c2cdefd4"><rect x="0" width="102" y="0" height="21"/></clipPath></defs><g clip-path="url(#c8296457f2)"><path fill="#11aaa2" d="M 57.597656 7.121094 L 7.777344 78.375 L 59.535156 78.375 L 74.582031 56.851562 L 69.589844 48.867188 L 55 69.730469 L 24.398438 69.730469 L 57.324219 22.640625 L 93.421875 78.375 L 103.929688 78.375 Z M 57.597656 7.121094 " fill-opacity="1" fill-rule="nonzero"/></g><g clip-path="url(#01f1489831)"><path fill="#2b313d" d="M 98.777344 7.121094 L 80.148438 33.761719 L 85.238281 41.613281 L 98.503906 22.640625 L 134.636719 78.375 L 144.980469 78.375 Z M 98.777344 7.121094 " fill-opacity="1" fill-rule="nonzero"/></g><g transform="matrix(1, 0, 0, 1, 27, 73)"><g clip-path="url(#d2edc3b9bc)"><g fill="#2b313d" fill-opacity="1"><g transform="translate(0.694986, 45.951699)"><g><path d="M 30.4375 0 L 24.90625 0 L 24.90625 -19.1875 L 24.984375 -23.734375 L 24.828125 -23.734375 L 19.515625 0 L 13.703125 0 L 8.515625 -23.734375 L 8.390625 -23.734375 L 8.4375 -19.1875 L 8.4375 0 L 2.890625 0 L 2.890625 -28.390625 L 11.578125 -28.390625 L 16.6875 -6 L 16.8125 -6 L 21.84375 -28.390625 L 30.4375 -28.390625 Z M 30.4375 0 "/></g></g></g><g fill="#2b313d" fill-opacity="1"><g transform="translate(37.552914, 45.951699)"><g><path d="M 25.84375 -28.390625 L 25.84375 0 L 19.921875 0 L 19.921875 -12.734375 L 8.828125 -12.734375 L 8.828125 0 L 2.890625 0 L 2.890625 -28.390625 L 8.828125 -28.390625 L 8.828125 -17.640625 L 19.921875 -17.640625 L 19.921875 -28.390625 Z M 25.84375 -28.390625 "/></g></g></g><g fill="#2b313d" fill-opacity="1"><g transform="translate(69.813939, 45.951699)"><g><path d="M 15.671875 -15.890625 C 17.222656 -15.890625 18.375 -16.1875 19.125 -16.78125 C 19.882812 -17.375 20.265625 -18.375 20.265625 -19.78125 C 20.265625 -20.9375 19.910156 -21.847656 19.203125 -22.515625 C 18.503906 -23.179688 17.472656 -23.515625 16.109375 -23.515625 L 8.71875 -23.515625 L 8.71875 -15.890625 Z M 2.890625 -28.390625 L 17.25 -28.390625 C 20.175781 -28.390625 22.394531 -27.609375 23.90625 -26.046875 C 25.425781 -24.484375 26.1875 -22.59375 26.1875 -20.375 C 26.1875 -17.082031 24.726562 -14.832031 21.8125 -13.625 C 23.164062 -13.101562 24.101562 -12.351562 24.625 -11.375 C 25.144531 -10.40625 25.40625 -8.65625 25.40625 -6.125 C 25.40625 -3.601562 25.5 -2.117188 25.6875 -1.671875 C 25.875 -1.222656 26.195312 -0.914062 26.65625 -0.75 L 26.65625 0 L 20.109375 0 C 19.679688 -1.269531 19.46875 -3.113281 19.46875 -5.53125 C 19.46875 -7.550781 19.332031 -8.851562 19.0625 -9.4375 C 18.789062 -10.019531 18.34375 -10.441406 17.71875 -10.703125 C 17.09375 -10.972656 16.132812 -11.109375 14.84375 -11.109375 L 8.71875 -11.109375 L 8.71875 0 L 2.890625 0 Z M 2.890625 -28.390625 "/></g></g></g></g></g><g transform="matrix(1, 0, 0, 1, 28, 117)"><g clip-path="url(#78c2cdefd4)"><g fill="#2b313d" fill-opacity="1"><g transform="translate(1.450894, 16.395191)"><g><path d="M 7.828125 -7.125 C 7.859375 -7.269531 7.875 -7.421875 7.875 -7.578125 C 7.875 -8.078125 7.671875 -8.46875 7.265625 -8.75 C 6.867188 -9.039062 6.378906 -9.1875 5.796875 -9.1875 C 5.046875 -9.1875 4.398438 -9.003906 3.859375 -8.640625 C 3.328125 -8.273438 3.0625 -7.789062 3.0625 -7.1875 C 3.0625 -6.894531 3.140625 -6.660156 3.296875 -6.484375 C 3.460938 -6.304688 3.703125 -6.175781 4.015625 -6.09375 L 6.453125 -5.515625 C 7.097656 -5.347656 7.609375 -5.082031 7.984375 -4.71875 C 8.359375 -4.363281 8.546875 -3.90625 8.546875 -3.34375 C 8.546875 -2.21875 8.109375 -1.332031 7.234375 -0.6875 C 6.359375 -0.0507812 5.285156 0.265625 4.015625 0.265625 C 2.878906 0.265625 1.992188 0.0351562 1.359375 -0.421875 C 0.722656 -0.878906 0.40625 -1.507812 0.40625 -2.3125 C 0.40625 -2.59375 0.453125 -2.90625 0.546875 -3.25 L 1.84375 -3.25 C 1.789062 -3.03125 1.765625 -2.828125 1.765625 -2.640625 C 1.765625 -2.085938 1.957031 -1.660156 2.34375 -1.359375 C 2.738281 -1.054688 3.304688 -0.90625 4.046875 -0.90625 C 5.003906 -0.90625 5.757812 -1.082031 6.3125 -1.4375 C 6.863281 -1.800781 7.140625 -2.3125 7.140625 -2.96875 C 7.140625 -3.28125 7.039062 -3.550781 6.84375 -3.78125 C 6.65625 -4.007812 6.316406 -4.179688 5.828125 -4.296875 L 3.59375 -4.84375 C 2.882812 -5.007812 2.382812 -5.257812 2.09375 -5.59375 C 1.8125 -5.9375 1.671875 -6.351562 1.671875 -6.84375 C 1.671875 -7.882812 2.09375 -8.726562 2.9375 -9.375 C 3.789062 -10.019531 4.78125 -10.34375 5.90625 -10.34375 C 6.9375 -10.34375 7.742188 -10.117188 8.328125 -9.671875 C 8.910156 -9.234375 9.203125 -8.632812 9.203125 -7.875 C 9.203125 -7.632812 9.171875 -7.382812 9.109375 -7.125 Z M 7.828125 -7.125 "/></g></g></g><g fill="#2b313d" fill-opacity="1"><g transform="translate(17.841222, 16.395191)"><g><path d="M 4.703125 -8.859375 L 1.296875 -8.859375 L 1.5625 -10.078125 L 9.734375 -10.078125 L 9.484375 -8.859375 L 6.0625 -8.859375 L 4.1875 0 L 2.828125 0 Z M 4.703125 -8.859375 "/></g></g></g><g fill="#2b313d" fill-opacity="1"><g transform="translate(33.47093, 16.395191)"><g><path d="M 2.5 -2.9375 L 0.8125 0 L -0.578125 0 L 5.34375 -10.078125 L 6.890625 -10.078125 L 8.390625 0 L 6.90625 0 L 6.53125 -2.9375 Z M 6.296875 -4.140625 L 5.75 -8.578125 L 5.734375 -8.578125 L 3.171875 -4.140625 Z M 6.296875 -4.140625 "/></g></g></g><g fill="#2b313d" fill-opacity="1"><g transform="translate(49.929783, 16.395191)"><g><path d="M 9.1875 -10.078125 L 10.515625 -10.078125 L 8.375 0 L 6.84375 0 L 3.453125 -8.140625 L 3.421875 -8.140625 L 1.6875 0 L 0.375 0 L 2.515625 -10.078125 L 4.125 -10.078125 L 7.4375 -1.9375 L 7.46875 -1.9375 Z M 9.1875 -10.078125 "/></g></g></g><g fill="#2b313d" fill-opacity="1"><g transform="translate(67.293157, 16.395191)"><g><path d="M 2.515625 -10.078125 L 6.453125 -10.078125 C 7.585938 -10.078125 8.457031 -9.765625 9.0625 -9.140625 C 9.664062 -8.523438 9.96875 -7.671875 9.96875 -6.578125 C 9.96875 -4.828125 9.445312 -3.289062 8.40625 -1.96875 C 7.363281 -0.65625 6.050781 0 4.46875 0 L 0.375 0 Z M 1.984375 -1.171875 L 4.5625 -1.171875 C 5.707031 -1.171875 6.648438 -1.691406 7.390625 -2.734375 C 8.140625 -3.785156 8.515625 -4.988281 8.515625 -6.34375 C 8.515625 -7.1875 8.3125 -7.820312 7.90625 -8.25 C 7.507812 -8.6875 6.929688 -8.90625 6.171875 -8.90625 L 3.625 -8.90625 Z M 1.984375 -1.171875 "/></g></g></g><g fill="#2b313d" fill-opacity="1"><g transform="translate(84.498925, 16.395191)"><g><path d="M 7.828125 -7.125 C 7.859375 -7.269531 7.875 -7.421875 7.875 -7.578125 C 7.875 -8.078125 7.671875 -8.46875 7.265625 -8.75 C 6.867188 -9.039062 6.378906 -9.1875 5.796875 -9.1875 C 5.046875 -9.1875 4.398438 -9.003906 3.859375 -8.640625 C 3.328125 -8.273438 3.0625 -7.789062 3.0625 -7.1875 C 3.0625 -6.894531 3.140625 -6.660156 3.296875 -6.484375 C 3.460938 -6.304688 3.703125 -6.175781 4.015625 -6.09375 L 6.453125 -5.515625 C 7.097656 -5.347656 7.609375 -5.082031 7.984375 -4.71875 C 8.359375 -4.363281 8.546875 -3.90625 8.546875 -3.34375 C 8.546875 -2.21875 8.109375 -1.332031 7.234375 -0.6875 C 6.359375 -0.0507812 5.285156 0.265625 4.015625 0.265625 C 2.878906 0.265625 1.992188 0.0351562 1.359375 -0.421875 C 0.722656 -0.878906 0.40625 -1.507812 0.40625 -2.3125 C 0.40625 -2.59375 0.453125 -2.90625 0.546875 -3.25 L 1.84375 -3.25 C 1.789062 -3.03125 1.765625 -2.828125 1.765625 -2.640625 C 1.765625 -2.085938 1.957031 -1.660156 2.34375 -1.359375 C 2.738281 -1.054688 3.304688 -0.90625 4.046875 -0.90625 C 5.003906 -0.90625 5.757812 -1.082031 6.3125 -1.4375 C 6.863281 -1.800781 7.140625 -2.3125 7.140625 -2.96875 C 7.140625 -3.28125 7.039062 -3.550781 6.84375 -3.78125 C 6.65625 -4.007812 6.316406 -4.179688 5.828125 -4.296875 L 3.59375 -4.84375 C 2.882812 -5.007812 2.382812 -5.257812 2.09375 -5.59375 C 1.8125 -5.9375 1.671875 -6.351562 1.671875 -6.84375 C 1.671875 -7.882812 2.09375 -8.726562 2.9375 -9.375 C 3.789062 -10.019531 4.78125 -10.34375 5.90625 -10.34375 C 6.9375 -10.34375 7.742188 -10.117188 8.328125 -9.671875 C 8.910156 -9.234375 9.203125 -8.632812 9.203125 -7.875 C 9.203125 -7.632812 9.171875 -7.382812 9.109375 -7.125 Z M 7.828125 -7.125 "/></g></g></g></g></g></svg>