<svg xmlns="http://www.w3.org/2000/svg" xmlns:xlink="http://www.w3.org/1999/xlink" width="500" zoomAndPan="magnify" viewBox="0 0 375 149.999998" height="200" preserveAspectRatio="xMidYMid meet" version="1.0"><defs><g/><clipPath id="b36948bdad"><path d="M 10.847656 26.820312 L 135 26.820312 L 135 118.320312 L 10.847656 118.320312 Z M 10.847656 26.820312 " clip-rule="nonzero"/></clipPath><clipPath id="f16a2464f5"><path d="M 103 26.820312 L 187 26.820312 L 187 118.320312 L 103 118.320312 Z M 103 26.820312 " clip-rule="nonzero"/></clipPath><clipPath id="ad945b36fb"><rect x="0" width="169" y="0" height="94"/></clipPath><clipPath id="19747ae9a7"><rect x="0" width="166" y="0" height="33"/></clipPath></defs><g clip-path="url(#b36948bdad)"><path fill="#11aaa2" d="M 74.824219 26.820312 L 10.875 118.675781 L 77.3125 118.675781 L 96.628906 90.925781 L 90.21875 80.636719 L 71.492188 107.527344 L 32.214844 107.527344 L 74.476562 46.824219 L 120.8125 118.675781 L 134.296875 118.675781 Z M 74.824219 26.820312 " fill-opacity="1" fill-rule="nonzero"/></g><g clip-path="url(#f16a2464f5)"><path fill="#ffffff" d="M 127.683594 26.820312 L 103.777344 61.160156 L 110.304688 71.285156 L 127.335938 46.824219 L 173.710938 118.675781 L 186.992188 118.675781 Z M 127.683594 26.820312 " fill-opacity="1" fill-rule="nonzero"/></g><g transform="matrix(1, 0, 0, 1, 194, 16)"><g clip-path="url(#ad945b36fb)"><g fill="#ffffff" fill-opacity="1"><g transform="translate(1.792117, 75.291416)"><g><path d="M 50.109375 0 L 40.984375 0 L 40.984375 -31.578125 L 41.109375 -39.078125 L 40.859375 -39.078125 L 32.125 0 L 22.546875 0 L 14.03125 -39.078125 L 13.796875 -39.078125 L 13.890625 -31.578125 L 13.890625 0 L 4.765625 0 L 4.765625 -46.75 L 19.046875 -46.75 L 27.46875 -9.890625 L 27.671875 -9.890625 L 35.96875 -46.75 L 50.109375 -46.75 Z M 50.109375 0 "/></g></g></g><g fill="#ffffff" fill-opacity="1"><g transform="translate(62.469106, 75.291416)"><g><path d="M 42.546875 -46.75 L 42.546875 0 L 32.78125 0 L 32.78125 -20.953125 L 14.53125 -20.953125 L 14.53125 0 L 4.765625 0 L 4.765625 -46.75 L 14.53125 -46.75 L 14.53125 -29.03125 L 32.78125 -29.03125 L 32.78125 -46.75 Z M 42.546875 -46.75 "/></g></g></g><g fill="#ffffff" fill-opacity="1"><g transform="translate(115.578492, 75.291416)"><g><path d="M 25.796875 -26.171875 C 28.359375 -26.171875 30.257812 -26.65625 31.5 -27.625 C 32.738281 -28.601562 33.359375 -30.25 33.359375 -32.5625 C 33.359375 -34.46875 32.78125 -35.96875 31.625 -37.0625 C 30.46875 -38.15625 28.765625 -38.703125 26.515625 -38.703125 L 14.34375 -38.703125 L 14.34375 -26.171875 Z M 4.765625 -46.75 L 28.390625 -46.75 C 33.203125 -46.75 36.859375 -45.457031 39.359375 -42.875 C 41.867188 -40.300781 43.125 -37.191406 43.125 -33.546875 C 43.125 -28.117188 40.71875 -24.410156 35.90625 -22.421875 C 38.125 -21.566406 39.660156 -20.335938 40.515625 -18.734375 C 41.378906 -17.140625 41.8125 -14.253906 41.8125 -10.078125 C 41.8125 -5.921875 41.960938 -3.476562 42.265625 -2.75 C 42.578125 -2.019531 43.117188 -1.515625 43.890625 -1.234375 L 43.890625 0 L 33.109375 0 C 32.398438 -2.09375 32.046875 -5.125 32.046875 -9.09375 C 32.046875 -12.425781 31.820312 -14.570312 31.375 -15.53125 C 30.9375 -16.5 30.203125 -17.195312 29.171875 -17.625 C 28.148438 -18.0625 26.566406 -18.28125 24.421875 -18.28125 L 14.34375 -18.28125 L 14.34375 0 L 4.765625 0 Z M 4.765625 -46.75 "/></g></g></g></g></g><g transform="matrix(1, 0, 0, 1, 197, 89)"><g clip-path="url(#19747ae9a7)"><g fill="#ffffff" fill-opacity="1"><g transform="translate(1.682774, 26.068892)"><g><path d="M 12.890625 -11.734375 C 12.941406 -11.972656 12.96875 -12.222656 12.96875 -12.484375 C 12.96875 -13.304688 12.632812 -13.953125 11.96875 -14.421875 C 11.3125 -14.890625 10.5 -15.125 9.53125 -15.125 C 8.3125 -15.125 7.257812 -14.820312 6.375 -14.21875 C 5.488281 -13.625 5.046875 -12.832031 5.046875 -11.84375 C 5.046875 -11.351562 5.175781 -10.960938 5.4375 -10.671875 C 5.695312 -10.378906 6.085938 -10.171875 6.609375 -10.046875 L 10.625 -9.078125 C 11.695312 -8.804688 12.539062 -8.375 13.15625 -7.78125 C 13.769531 -7.1875 14.078125 -6.425781 14.078125 -5.5 C 14.078125 -3.644531 13.351562 -2.191406 11.90625 -1.140625 C 10.46875 -0.0859375 8.703125 0.4375 6.609375 0.4375 C 4.742188 0.4375 3.285156 0.0625 2.234375 -0.6875 C 1.191406 -1.4375 0.671875 -2.472656 0.671875 -3.796875 C 0.671875 -4.265625 0.75 -4.785156 0.90625 -5.359375 L 3.03125 -5.359375 C 2.945312 -4.992188 2.90625 -4.660156 2.90625 -4.359375 C 2.90625 -3.441406 3.222656 -2.734375 3.859375 -2.234375 C 4.503906 -1.734375 5.441406 -1.484375 6.671875 -1.484375 C 8.242188 -1.484375 9.484375 -1.78125 10.390625 -2.375 C 11.304688 -2.96875 11.765625 -3.804688 11.765625 -4.890625 C 11.765625 -5.398438 11.609375 -5.84375 11.296875 -6.21875 C 10.984375 -6.59375 10.414062 -6.878906 9.59375 -7.078125 L 5.90625 -7.96875 C 4.738281 -8.25 3.921875 -8.664062 3.453125 -9.21875 C 2.984375 -9.769531 2.75 -10.453125 2.75 -11.265625 C 2.75 -12.992188 3.445312 -14.382812 4.84375 -15.4375 C 6.238281 -16.5 7.867188 -17.03125 9.734375 -17.03125 C 11.421875 -17.03125 12.742188 -16.664062 13.703125 -15.9375 C 14.671875 -15.207031 15.15625 -14.21875 15.15625 -12.96875 C 15.15625 -12.582031 15.101562 -12.171875 15 -11.734375 Z M 12.890625 -11.734375 "/></g></g></g><g fill="#ffffff" fill-opacity="1"><g transform="translate(28.665185, 26.068892)"><g><path d="M 7.75 -14.59375 L 2.140625 -14.59375 L 2.5625 -16.59375 L 16.03125 -16.59375 L 15.609375 -14.59375 L 10 -14.59375 L 6.890625 0 L 4.65625 0 Z M 7.75 -14.59375 "/></g></g></g><g fill="#ffffff" fill-opacity="1"><g transform="translate(54.395433, 26.068892)"><g><path d="M 4.109375 -4.828125 L 1.34375 0 L -0.953125 0 L 8.796875 -16.59375 L 11.34375 -16.59375 L 13.828125 0 L 11.375 0 L 10.765625 -4.828125 Z M 10.375 -6.8125 L 9.484375 -14.109375 L 9.4375 -14.109375 L 5.21875 -6.8125 Z M 10.375 -6.8125 "/></g></g></g><g fill="#ffffff" fill-opacity="1"><g transform="translate(81.490652, 26.068892)"><g><path d="M 15.125 -16.59375 L 17.3125 -16.59375 L 13.78125 0 L 11.265625 0 L 5.6875 -13.40625 L 5.640625 -13.40625 L 2.78125 0 L 0.625 0 L 4.140625 -16.59375 L 6.796875 -16.59375 L 12.25 -3.1875 L 12.28125 -3.1875 Z M 15.125 -16.59375 "/></g></g></g><g fill="#ffffff" fill-opacity="1"><g transform="translate(110.07493, 26.068892)"><g><path d="M 4.140625 -16.59375 L 10.640625 -16.59375 C 12.492188 -16.59375 13.914062 -16.082031 14.90625 -15.0625 C 15.90625 -14.050781 16.40625 -12.644531 16.40625 -10.84375 C 16.40625 -7.957031 15.546875 -5.425781 13.828125 -3.25 C 12.117188 -1.082031 9.96875 0 7.375 0 L 0.625 0 Z M 3.265625 -1.921875 L 7.5 -1.921875 C 9.394531 -1.921875 10.957031 -2.78125 12.1875 -4.5 C 13.414062 -6.226562 14.03125 -8.210938 14.03125 -10.453125 C 14.03125 -11.835938 13.695312 -12.882812 13.03125 -13.59375 C 12.375 -14.3125 11.414062 -14.671875 10.15625 -14.671875 L 5.984375 -14.671875 Z M 3.265625 -1.921875 "/></g></g></g><g fill="#ffffff" fill-opacity="1"><g transform="translate(138.399751, 26.068892)"><g><path d="M 12.890625 -11.734375 C 12.941406 -11.972656 12.96875 -12.222656 12.96875 -12.484375 C 12.96875 -13.304688 12.632812 -13.953125 11.96875 -14.421875 C 11.3125 -14.890625 10.5 -15.125 9.53125 -15.125 C 8.3125 -15.125 7.257812 -14.820312 6.375 -14.21875 C 5.488281 -13.625 5.046875 -12.832031 5.046875 -11.84375 C 5.046875 -11.351562 5.175781 -10.960938 5.4375 -10.671875 C 5.695312 -10.378906 6.085938 -10.171875 6.609375 -10.046875 L 10.625 -9.078125 C 11.695312 -8.804688 12.539062 -8.375 13.15625 -7.78125 C 13.769531 -7.1875 14.078125 -6.425781 14.078125 -5.5 C 14.078125 -3.644531 13.351562 -2.191406 11.90625 -1.140625 C 10.46875 -0.0859375 8.703125 0.4375 6.609375 0.4375 C 4.742188 0.4375 3.285156 0.0625 2.234375 -0.6875 C 1.191406 -1.4375 0.671875 -2.472656 0.671875 -3.796875 C 0.671875 -4.265625 0.75 -4.785156 0.90625 -5.359375 L 3.03125 -5.359375 C 2.945312 -4.992188 2.90625 -4.660156 2.90625 -4.359375 C 2.90625 -3.441406 3.222656 -2.734375 3.859375 -2.234375 C 4.503906 -1.734375 5.441406 -1.484375 6.671875 -1.484375 C 8.242188 -1.484375 9.484375 -1.78125 10.390625 -2.375 C 11.304688 -2.96875 11.765625 -3.804688 11.765625 -4.890625 C 11.765625 -5.398438 11.609375 -5.84375 11.296875 -6.21875 C 10.984375 -6.59375 10.414062 -6.878906 9.59375 -7.078125 L 5.90625 -7.96875 C 4.738281 -8.25 3.921875 -8.664062 3.453125 -9.21875 C 2.984375 -9.769531 2.75 -10.453125 2.75 -11.265625 C 2.75 -12.992188 3.445312 -14.382812 4.84375 -15.4375 C 6.238281 -16.5 7.867188 -17.03125 9.734375 -17.03125 C 11.421875 -17.03125 12.742188 -16.664062 13.703125 -15.9375 C 14.671875 -15.207031 15.15625 -14.21875 15.15625 -12.96875 C 15.15625 -12.582031 15.101562 -12.171875 15 -11.734375 Z M 12.890625 -11.734375 "/></g></g></g></g></g></svg>