<svg xmlns="http://www.w3.org/2000/svg" xmlns:xlink="http://www.w3.org/1999/xlink" width="200" zoomAndPan="magnify" viewBox="0 0 150 149.999998" height="200" preserveAspectRatio="xMidYMid meet" version="1.0"><defs><g/><clipPath id="a369c2bc8f"><path d="M 9.773438 11.015625 L 102 11.015625 L 102 79.265625 L 9.773438 79.265625 Z M 9.773438 11.015625 " clip-rule="nonzero"/></clipPath><clipPath id="4e90a1ffcb"><path d="M 78 11.015625 L 140.273438 11.015625 L 140.273438 79.265625 L 78 79.265625 Z M 78 11.015625 " clip-rule="nonzero"/></clipPath><clipPath id="c8a4a8e262"><rect x="0" width="98" y="0" height="55"/></clipPath><clipPath id="cd16ae726d"><rect x="0" width="97" y="0" height="20"/></clipPath></defs><g clip-path="url(#a369c2bc8f)"><path fill="#11aaa2" d="M 57.148438 11.015625 L 9.804688 79.023438 L 58.992188 79.023438 L 73.292969 58.480469 L 68.546875 50.859375 L 54.683594 70.769531 L 25.601562 70.769531 L 56.890625 25.828125 L 91.195312 79.023438 L 101.179688 79.023438 Z M 57.148438 11.015625 " fill-opacity="1" fill-rule="nonzero"/></g><g clip-path="url(#4e90a1ffcb)"><path fill="#ffffff" d="M 96.285156 11.015625 L 78.582031 36.441406 L 83.417969 43.9375 L 96.027344 25.828125 L 130.363281 79.023438 L 140.195312 79.023438 Z M 96.285156 11.015625 " fill-opacity="1" fill-rule="nonzero"/></g><g transform="matrix(1, 0, 0, 1, 28, 73)"><g clip-path="url(#c8a4a8e262)"><g fill="#ffffff" fill-opacity="1"><g transform="translate(0.749583, 44.408174)"><g><path d="M 28.96875 0 L 23.6875 0 L 23.6875 -18.25 L 23.765625 -22.59375 L 23.625 -22.59375 L 18.5625 0 L 13.03125 0 L 8.109375 -22.59375 L 7.984375 -22.59375 L 8.03125 -18.25 L 8.03125 0 L 2.75 0 L 2.75 -27.015625 L 11.015625 -27.015625 L 15.875 -5.71875 L 15.984375 -5.71875 L 20.78125 -27.015625 L 28.96875 -27.015625 Z M 28.96875 0 "/></g></g></g><g fill="#ffffff" fill-opacity="1"><g transform="translate(35.815239, 44.408174)"><g><path d="M 24.59375 -27.015625 L 24.59375 0 L 18.953125 0 L 18.953125 -12.109375 L 8.40625 -12.109375 L 8.40625 0 L 2.75 0 L 2.75 -27.015625 L 8.40625 -27.015625 L 8.40625 -16.78125 L 18.953125 -16.78125 L 18.953125 -27.015625 Z M 24.59375 -27.015625 "/></g></g></g><g fill="#ffffff" fill-opacity="1"><g transform="translate(66.507524, 44.408174)"><g><path d="M 14.90625 -15.125 C 16.382812 -15.125 17.484375 -15.40625 18.203125 -15.96875 C 18.921875 -16.53125 19.28125 -17.484375 19.28125 -18.828125 C 19.28125 -19.921875 18.945312 -20.785156 18.28125 -21.421875 C 17.613281 -22.054688 16.628906 -22.375 15.328125 -22.375 L 8.28125 -22.375 L 8.28125 -15.125 Z M 2.75 -27.015625 L 16.40625 -27.015625 C 19.1875 -27.015625 21.300781 -26.269531 22.75 -24.78125 C 24.195312 -23.289062 24.921875 -21.492188 24.921875 -19.390625 C 24.921875 -16.253906 23.53125 -14.109375 20.75 -12.953125 C 22.039062 -12.460938 22.929688 -11.753906 23.421875 -10.828125 C 23.921875 -9.910156 24.171875 -8.242188 24.171875 -5.828125 C 24.171875 -3.421875 24.257812 -2.003906 24.4375 -1.578125 C 24.613281 -1.160156 24.921875 -0.875 25.359375 -0.71875 L 25.359375 0 L 19.125 0 C 18.726562 -1.207031 18.53125 -2.957031 18.53125 -5.25 C 18.53125 -7.175781 18.398438 -8.414062 18.140625 -8.96875 C 17.878906 -9.53125 17.453125 -9.9375 16.859375 -10.1875 C 16.265625 -10.4375 15.347656 -10.5625 14.109375 -10.5625 L 8.28125 -10.5625 L 8.28125 0 L 2.75 0 Z M 2.75 -27.015625 "/></g></g></g></g></g><g transform="matrix(1, 0, 0, 1, 29, 116)"><g clip-path="url(#cd16ae726d)"><g fill="#ffffff" fill-opacity="1"><g transform="translate(1.420108, 15.14934)"><g><path d="M 7.453125 -6.78125 C 7.484375 -6.925781 7.5 -7.070312 7.5 -7.21875 C 7.5 -7.695312 7.304688 -8.066406 6.921875 -8.328125 C 6.535156 -8.597656 6.066406 -8.734375 5.515625 -8.734375 C 4.804688 -8.734375 4.195312 -8.5625 3.6875 -8.21875 C 3.175781 -7.875 2.921875 -7.414062 2.921875 -6.84375 C 2.921875 -6.5625 2.992188 -6.335938 3.140625 -6.171875 C 3.296875 -6.003906 3.523438 -5.882812 3.828125 -5.8125 L 6.140625 -5.25 C 6.765625 -5.09375 7.253906 -4.84375 7.609375 -4.5 C 7.960938 -4.15625 8.140625 -3.710938 8.140625 -3.171875 C 8.140625 -2.109375 7.722656 -1.269531 6.890625 -0.65625 C 6.054688 -0.0507812 5.035156 0.25 3.828125 0.25 C 2.742188 0.25 1.898438 0.0351562 1.296875 -0.390625 C 0.691406 -0.828125 0.390625 -1.429688 0.390625 -2.203125 C 0.390625 -2.472656 0.429688 -2.769531 0.515625 -3.09375 L 1.75 -3.09375 C 1.695312 -2.882812 1.671875 -2.691406 1.671875 -2.515625 C 1.671875 -1.992188 1.859375 -1.585938 2.234375 -1.296875 C 2.609375 -1.003906 3.148438 -0.859375 3.859375 -0.859375 C 4.765625 -0.859375 5.476562 -1.03125 6 -1.375 C 6.53125 -1.71875 6.796875 -2.203125 6.796875 -2.828125 C 6.796875 -3.117188 6.703125 -3.375 6.515625 -3.59375 C 6.335938 -3.8125 6.015625 -3.976562 5.546875 -4.09375 L 3.421875 -4.609375 C 2.742188 -4.773438 2.269531 -5.015625 2 -5.328125 C 1.726562 -5.648438 1.59375 -6.046875 1.59375 -6.515625 C 1.59375 -7.515625 1.992188 -8.316406 2.796875 -8.921875 C 3.609375 -9.535156 4.550781 -9.84375 5.625 -9.84375 C 6.601562 -9.84375 7.367188 -9.628906 7.921875 -9.203125 C 8.484375 -8.785156 8.765625 -8.21875 8.765625 -7.5 C 8.765625 -7.269531 8.734375 -7.03125 8.671875 -6.78125 Z M 7.453125 -6.78125 "/></g></g></g><g fill="#ffffff" fill-opacity="1"><g transform="translate(17.013432, 15.14934)"><g><path d="M 4.484375 -8.4375 L 1.234375 -8.4375 L 1.484375 -9.59375 L 9.265625 -9.59375 L 9.03125 -8.4375 L 5.78125 -8.4375 L 3.984375 0 L 2.6875 0 Z M 4.484375 -8.4375 "/></g></g></g><g fill="#ffffff" fill-opacity="1"><g transform="translate(31.883122, 15.14934)"><g><path d="M 2.375 -2.796875 L 0.78125 0 L -0.546875 0 L 5.09375 -9.59375 L 6.5625 -9.59375 L 7.984375 0 L 6.578125 0 L 6.21875 -2.796875 Z M 6 -3.9375 L 5.484375 -8.15625 L 5.453125 -8.15625 L 3.015625 -3.9375 Z M 6 -3.9375 "/></g></g></g><g fill="#ffffff" fill-opacity="1"><g transform="translate(47.541638, 15.14934)"><g><path d="M 8.75 -9.59375 L 10 -9.59375 L 7.96875 0 L 6.515625 0 L 3.28125 -7.75 L 3.265625 -7.75 L 1.609375 0 L 0.359375 0 L 2.390625 -9.59375 L 3.921875 -9.59375 L 7.078125 -1.84375 L 7.109375 -1.84375 Z M 8.75 -9.59375 "/></g></g></g><g fill="#ffffff" fill-opacity="1"><g transform="translate(64.060692, 15.14934)"><g><path d="M 2.390625 -9.59375 L 6.15625 -9.59375 C 7.226562 -9.59375 8.050781 -9.296875 8.625 -8.703125 C 9.195312 -8.117188 9.484375 -7.304688 9.484375 -6.265625 C 9.484375 -4.597656 8.988281 -3.132812 8 -1.875 C 7.007812 -0.625 5.765625 0 4.265625 0 L 0.359375 0 Z M 1.890625 -1.109375 L 4.34375 -1.109375 C 5.425781 -1.109375 6.320312 -1.609375 7.03125 -2.609375 C 7.75 -3.609375 8.109375 -4.753906 8.109375 -6.046875 C 8.109375 -6.835938 7.914062 -7.441406 7.53125 -7.859375 C 7.144531 -8.273438 6.59375 -8.484375 5.875 -8.484375 L 3.453125 -8.484375 Z M 1.890625 -1.109375 "/></g></g></g><g fill="#ffffff" fill-opacity="1"><g transform="translate(80.429804, 15.14934)"><g><path d="M 7.453125 -6.78125 C 7.484375 -6.925781 7.5 -7.070312 7.5 -7.21875 C 7.5 -7.695312 7.304688 -8.066406 6.921875 -8.328125 C 6.535156 -8.597656 6.066406 -8.734375 5.515625 -8.734375 C 4.804688 -8.734375 4.195312 -8.5625 3.6875 -8.21875 C 3.175781 -7.875 2.921875 -7.414062 2.921875 -6.84375 C 2.921875 -6.5625 2.992188 -6.335938 3.140625 -6.171875 C 3.296875 -6.003906 3.523438 -5.882812 3.828125 -5.8125 L 6.140625 -5.25 C 6.765625 -5.09375 7.253906 -4.84375 7.609375 -4.5 C 7.960938 -4.15625 8.140625 -3.710938 8.140625 -3.171875 C 8.140625 -2.109375 7.722656 -1.269531 6.890625 -0.65625 C 6.054688 -0.0507812 5.035156 0.25 3.828125 0.25 C 2.742188 0.25 1.898438 0.0351562 1.296875 -0.390625 C 0.691406 -0.828125 0.390625 -1.429688 0.390625 -2.203125 C 0.390625 -2.472656 0.429688 -2.769531 0.515625 -3.09375 L 1.75 -3.09375 C 1.695312 -2.882812 1.671875 -2.691406 1.671875 -2.515625 C 1.671875 -1.992188 1.859375 -1.585938 2.234375 -1.296875 C 2.609375 -1.003906 3.148438 -0.859375 3.859375 -0.859375 C 4.765625 -0.859375 5.476562 -1.03125 6 -1.375 C 6.53125 -1.71875 6.796875 -2.203125 6.796875 -2.828125 C 6.796875 -3.117188 6.703125 -3.375 6.515625 -3.59375 C 6.335938 -3.8125 6.015625 -3.976562 5.546875 -4.09375 L 3.421875 -4.609375 C 2.742188 -4.773438 2.269531 -5.015625 2 -5.328125 C 1.726562 -5.648438 1.59375 -6.046875 1.59375 -6.515625 C 1.59375 -7.515625 1.992188 -8.316406 2.796875 -8.921875 C 3.609375 -9.535156 4.550781 -9.84375 5.625 -9.84375 C 6.601562 -9.84375 7.367188 -9.628906 7.921875 -9.203125 C 8.484375 -8.785156 8.765625 -8.21875 8.765625 -7.5 C 8.765625 -7.269531 8.734375 -7.03125 8.671875 -6.78125 Z M 7.453125 -6.78125 "/></g></g></g></g></g></svg>