<svg xmlns="http://www.w3.org/2000/svg" xmlns:xlink="http://www.w3.org/1999/xlink" width="500" zoomAndPan="magnify" viewBox="0 0 375 149.999998" height="200" preserveAspectRatio="xMidYMid meet" version="1.0"><defs><g/><clipPath id="494c77fde4"><path d="M 5.527344 18.75 L 135 18.75 L 135 114.75 L 5.527344 114.75 Z M 5.527344 18.75 " clip-rule="nonzero"/></clipPath><clipPath id="55d95fd489"><path d="M 102 18.75 L 190.027344 18.75 L 190.027344 114.75 L 102 114.75 Z M 102 18.75 " clip-rule="nonzero"/></clipPath><clipPath id="07b3cc31e2"><rect x="0" width="176" y="0" height="99"/></clipPath><clipPath id="a978e8f197"><rect x="0" width="173" y="0" height="35"/></clipPath></defs><g clip-path="url(#494c77fde4)"><path fill="#11aaa2" d="M 72.53125 18.75 L 5.558594 114.753906 L 75.136719 114.753906 L 95.371094 85.753906 L 88.652344 74.996094 L 69.042969 103.105469 L 27.90625 103.105469 L 72.167969 39.660156 L 120.695312 114.753906 L 134.816406 114.753906 Z M 72.53125 18.75 " fill-opacity="1" fill-rule="nonzero"/></g><g clip-path="url(#55d95fd489)"><path fill="#2b313d" d="M 127.890625 18.75 L 102.851562 54.640625 L 109.691406 65.222656 L 127.527344 39.660156 L 176.097656 114.753906 L 190.003906 114.753906 Z M 127.890625 18.75 " fill-opacity="1" fill-rule="nonzero"/></g><g transform="matrix(1, 0, 0, 1, 196, 11)"><g clip-path="url(#07b3cc31e2)"><g fill="#2b313d" fill-opacity="1"><g transform="translate(1.277548, 79.384595)"><g><path d="M 52.4375 0 L 42.890625 0 L 42.890625 -33.03125 L 43.015625 -40.890625 L 42.75 -40.890625 L 33.609375 0 L 23.59375 0 L 14.671875 -40.890625 L 14.4375 -40.890625 L 14.546875 -33.03125 L 14.546875 0 L 4.984375 0 L 4.984375 -48.90625 L 19.9375 -48.90625 L 28.75 -10.34375 L 28.953125 -10.34375 L 37.625 -48.90625 L 52.4375 -48.90625 Z M 52.4375 0 "/></g></g></g><g fill="#2b313d" fill-opacity="1"><g transform="translate(64.761729, 79.384595)"><g><path d="M 44.515625 -48.90625 L 44.515625 0 L 34.296875 0 L 34.296875 -21.921875 L 15.203125 -21.921875 L 15.203125 0 L 4.984375 0 L 4.984375 -48.90625 L 15.203125 -48.90625 L 15.203125 -30.375 L 34.296875 -30.375 L 34.296875 -48.90625 Z M 44.515625 -48.90625 "/></g></g></g><g fill="#2b313d" fill-opacity="1"><g transform="translate(120.328195, 79.384595)"><g><path d="M 26.984375 -27.375 C 29.671875 -27.375 31.660156 -27.882812 32.953125 -28.90625 C 34.253906 -29.925781 34.90625 -31.648438 34.90625 -34.078125 C 34.90625 -36.066406 34.300781 -37.628906 33.09375 -38.765625 C 31.882812 -39.910156 30.101562 -40.484375 27.75 -40.484375 L 15 -40.484375 L 15 -27.375 Z M 4.984375 -48.90625 L 29.71875 -48.90625 C 34.75 -48.90625 38.570312 -47.554688 41.1875 -44.859375 C 43.800781 -42.171875 45.109375 -38.921875 45.109375 -35.109375 C 45.109375 -29.421875 42.59375 -25.535156 37.5625 -23.453125 C 39.894531 -22.566406 41.507812 -21.285156 42.40625 -19.609375 C 43.300781 -17.941406 43.75 -14.921875 43.75 -10.546875 C 43.75 -6.203125 43.910156 -3.644531 44.234375 -2.875 C 44.554688 -2.113281 45.117188 -1.585938 45.921875 -1.296875 L 45.921875 0 L 34.640625 0 C 33.898438 -2.195312 33.53125 -5.367188 33.53125 -9.515625 C 33.53125 -12.992188 33.296875 -15.238281 32.828125 -16.25 C 32.367188 -17.257812 31.597656 -17.988281 30.515625 -18.4375 C 29.441406 -18.894531 27.785156 -19.125 25.546875 -19.125 L 15 -19.125 L 15 0 L 4.984375 0 Z M 4.984375 -48.90625 "/></g></g></g></g></g><g transform="matrix(1, 0, 0, 1, 199, 88)"><g clip-path="url(#a978e8f197)"><g fill="#2b313d" fill-opacity="1"><g transform="translate(1.301932, 27.262124)"><g><path d="M 13.484375 -12.28125 C 13.535156 -12.53125 13.5625 -12.789062 13.5625 -13.0625 C 13.5625 -13.925781 13.210938 -14.597656 12.515625 -15.078125 C 11.828125 -15.566406 10.976562 -15.8125 9.96875 -15.8125 C 8.695312 -15.8125 7.597656 -15.5 6.671875 -14.875 C 5.742188 -14.25 5.28125 -13.421875 5.28125 -12.390625 C 5.28125 -11.878906 5.414062 -11.46875 5.6875 -11.15625 C 5.96875 -10.851562 6.378906 -10.632812 6.921875 -10.5 L 11.109375 -9.484375 C 12.234375 -9.210938 13.113281 -8.765625 13.75 -8.140625 C 14.394531 -7.523438 14.71875 -6.726562 14.71875 -5.75 C 14.71875 -3.8125 13.960938 -2.289062 12.453125 -1.1875 C 10.953125 -0.09375 9.109375 0.453125 6.921875 0.453125 C 4.960938 0.453125 3.4375 0.0625 2.34375 -0.71875 C 1.25 -1.507812 0.703125 -2.597656 0.703125 -3.984375 C 0.703125 -4.460938 0.78125 -5.003906 0.9375 -5.609375 L 3.15625 -5.609375 C 3.070312 -5.222656 3.03125 -4.875 3.03125 -4.5625 C 3.03125 -3.601562 3.363281 -2.863281 4.03125 -2.34375 C 4.707031 -1.820312 5.6875 -1.5625 6.96875 -1.5625 C 8.613281 -1.5625 9.914062 -1.867188 10.875 -2.484375 C 11.832031 -3.097656 12.3125 -3.976562 12.3125 -5.125 C 12.3125 -5.644531 12.144531 -6.101562 11.8125 -6.5 C 11.476562 -6.894531 10.882812 -7.195312 10.03125 -7.40625 L 6.1875 -8.328125 C 4.96875 -8.628906 4.109375 -9.066406 3.609375 -9.640625 C 3.117188 -10.222656 2.875 -10.9375 2.875 -11.78125 C 2.875 -13.59375 3.601562 -15.050781 5.0625 -16.15625 C 6.53125 -17.269531 8.234375 -17.828125 10.171875 -17.828125 C 11.941406 -17.828125 13.328125 -17.441406 14.328125 -16.671875 C 15.335938 -15.910156 15.84375 -14.875 15.84375 -13.5625 C 15.84375 -13.15625 15.796875 -12.726562 15.703125 -12.28125 Z M 13.484375 -12.28125 "/></g></g></g><g fill="#2b313d" fill-opacity="1"><g transform="translate(29.532672, 27.262124)"><g><path d="M 8.109375 -15.265625 L 2.25 -15.265625 L 2.671875 -17.34375 L 16.765625 -17.34375 L 16.328125 -15.265625 L 10.453125 -15.265625 L 7.21875 0 L 4.859375 0 Z M 8.109375 -15.265625 "/></g></g></g><g fill="#2b313d" fill-opacity="1"><g transform="translate(56.453317, 27.262124)"><g><path d="M 4.296875 -5.046875 L 1.40625 0 L -1 0 L 9.203125 -17.34375 L 11.859375 -17.34375 L 14.453125 0 L 11.890625 0 L 11.265625 -5.046875 Z M 10.84375 -7.125 L 9.921875 -14.765625 L 9.859375 -14.765625 L 5.46875 -7.125 Z M 10.84375 -7.125 "/></g></g></g><g fill="#2b313d" fill-opacity="1"><g transform="translate(84.802083, 27.262124)"><g><path d="M 15.828125 -17.34375 L 18.109375 -17.34375 L 14.421875 0 L 11.796875 0 L 5.953125 -14.015625 L 5.90625 -14.015625 L 2.921875 0 L 0.65625 0 L 4.328125 -17.34375 L 7.109375 -17.34375 L 12.8125 -3.34375 L 12.859375 -3.34375 Z M 15.828125 -17.34375 "/></g></g></g><g fill="#2b313d" fill-opacity="1"><g transform="translate(114.708799, 27.262124)"><g><path d="M 4.328125 -17.34375 L 11.125 -17.34375 C 13.070312 -17.34375 14.5625 -16.8125 15.59375 -15.75 C 16.632812 -14.6875 17.15625 -13.21875 17.15625 -11.34375 C 17.15625 -8.320312 16.257812 -5.675781 14.46875 -3.40625 C 12.675781 -1.132812 10.421875 0 7.703125 0 L 0.65625 0 Z M 3.421875 -2 L 7.84375 -2 C 9.820312 -2 11.457031 -2.898438 12.75 -4.703125 C 14.039062 -6.515625 14.6875 -8.59375 14.6875 -10.9375 C 14.6875 -12.375 14.335938 -13.46875 13.640625 -14.21875 C 12.941406 -14.96875 11.9375 -15.34375 10.625 -15.34375 L 6.25 -15.34375 Z M 3.421875 -2 "/></g></g></g><g fill="#2b313d" fill-opacity="1"><g transform="translate(144.344054, 27.262124)"><g><path d="M 13.484375 -12.28125 C 13.535156 -12.53125 13.5625 -12.789062 13.5625 -13.0625 C 13.5625 -13.925781 13.210938 -14.597656 12.515625 -15.078125 C 11.828125 -15.566406 10.976562 -15.8125 9.96875 -15.8125 C 8.695312 -15.8125 7.597656 -15.5 6.671875 -14.875 C 5.742188 -14.25 5.28125 -13.421875 5.28125 -12.390625 C 5.28125 -11.878906 5.414062 -11.46875 5.6875 -11.15625 C 5.96875 -10.851562 6.378906 -10.632812 6.921875 -10.5 L 11.109375 -9.484375 C 12.234375 -9.210938 13.113281 -8.765625 13.75 -8.140625 C 14.394531 -7.523438 14.71875 -6.726562 14.71875 -5.75 C 14.71875 -3.8125 13.960938 -2.289062 12.453125 -1.1875 C 10.953125 -0.09375 9.109375 0.453125 6.921875 0.453125 C 4.960938 0.453125 3.4375 0.0625 2.34375 -0.71875 C 1.25 -1.507812 0.703125 -2.597656 0.703125 -3.984375 C 0.703125 -4.460938 0.78125 -5.003906 0.9375 -5.609375 L 3.15625 -5.609375 C 3.070312 -5.222656 3.03125 -4.875 3.03125 -4.5625 C 3.03125 -3.601562 3.363281 -2.863281 4.03125 -2.34375 C 4.707031 -1.820312 5.6875 -1.5625 6.96875 -1.5625 C 8.613281 -1.5625 9.914062 -1.867188 10.875 -2.484375 C 11.832031 -3.097656 12.3125 -3.976562 12.3125 -5.125 C 12.3125 -5.644531 12.144531 -6.101562 11.8125 -6.5 C 11.476562 -6.894531 10.882812 -7.195312 10.03125 -7.40625 L 6.1875 -8.328125 C 4.96875 -8.628906 4.109375 -9.066406 3.609375 -9.640625 C 3.117188 -10.222656 2.875 -10.9375 2.875 -11.78125 C 2.875 -13.59375 3.601562 -15.050781 5.0625 -16.15625 C 6.53125 -17.269531 8.234375 -17.828125 10.171875 -17.828125 C 11.941406 -17.828125 13.328125 -17.441406 14.328125 -16.671875 C 15.335938 -15.910156 15.84375 -14.875 15.84375 -13.5625 C 15.84375 -13.15625 15.796875 -12.726562 15.703125 -12.28125 Z M 13.484375 -12.28125 "/></g></g></g></g></g></svg>